<!-- icon666.com - MILLIONS vector ICONS FREE -->
<svg xmlns="http://www.w3.org/2000/svg" id="Layer_1" data-name="Layer 1" viewBox="0 0 64 64">
    <path
        d="M63.3,31.047,53.973,28.1A7.42,7.42,0,0,0,52.5,20.472l6.277-7.847a1,1,0,0,0-.945-1.611l-9.352,1.555A8.418,8.418,0,0,0,45.1,9.092l1.8-3.651a1,1,0,0,0-1.8-.882L43.248,8.325a8.519,8.519,0,0,0-7.661,1.59L32.962.726a1,1,0,0,0-1.924,0L28.375,10.05a7.415,7.415,0,0,0-5.2-.871,7.5,7.5,0,0,0-4.368,2.65L11.54,7.158A1,1,0,0,0,10.047,8.3l2.358,7.457a8.412,8.412,0,0,0-2.325,1.35l-5.5-3.923a1,1,0,1,0-1.162,1.628l5.238,3.737a8.446,8.446,0,0,0-.025,10.228L.724,31.038a1,1,0,0,0,0,1.923L8.51,35.187a8.48,8.48,0,0,0,2.458,13.639L7.105,56.553a1,1,0,0,0,.188,1.154.923.923,0,0,0,1.154.188l9.6-4.8a7.4,7.4,0,0,0,3.416,1.461,7.665,7.665,0,0,0,1.106.082,7.506,7.506,0,0,0,5.358-2.264l3.111,10.9a1,1,0,0,0,1.924,0l2.582-9.038a8.6,8.6,0,0,0,4.425.957l1.063,4.06a.969.969,0,0,0,1.221.715.982.982,0,0,0,.715-1.221l-1.023-3.9a8.408,8.408,0,0,0,3.968-2.554L53.554,56.1c.141.072.841.189,1.124-.159a1.1,1.1,0,0,0,.251-1.106l-2.842-7.1a7.481,7.481,0,0,0,2.857-12.174L63.3,32.954a1,1,0,0,0,0-1.907ZM50.971,19.185a7.531,7.531,0,0,0-1.735-.822,8.447,8.447,0,0,0-.034-3.886l6.385-1.062Zm-33.2-5.654a7.351,7.351,0,0,0-.555,1.867,8.684,8.684,0,0,0-2.863-.128l-1.561-4.934ZM12.884,49.467a8.465,8.465,0,0,0,2.6.122,7.428,7.428,0,0,0,1.078,2.016l-6.328,3.161Zm34.156,1.15a8.429,8.429,0,0,0,.849-2.579,7.424,7.424,0,0,0,2.221.145L52.1,53.141ZM46.7,36.046A1,1,0,0,0,47,38c.1,0,5.7-1.733,5.7-1.733a5.489,5.489,0,0,1-5.322,9.52,1,1,0,0,0-1.386.923,6.529,6.529,0,0,1-1.178,3.744,6.5,6.5,0,0,1-8.7,1.8l2.509-8.782c1.656.784,4.752,1.788,7.241-.076a1,1,0,0,0-1.2-1.6c-2.373,1.776-6.073-.611-6.11-.634a1,1,0,0,0-1.512.561L32,59.358,27.282,42.836a1,1,0,0,0-1.559-.527,5.271,5.271,0,0,1-4.266.733,1,1,0,0,0-.565,1.918,6.985,6.985,0,0,0,4.811-.37L27.248,50a5.481,5.481,0,0,1-5.49,2.581,5.39,5.39,0,0,1-2.911-1.4,5.483,5.483,0,0,1-1.659-2.929A1.84,1.84,0,0,0,16,47.483a6.511,6.511,0,0,1-7.612-4.357,6.469,6.469,0,0,1,2.453-7.274l5.9,1.688a6.921,6.921,0,0,0,.073,3.781,1.021,1.021,0,0,0,1.269.626c.785-.3.8-.745.626-1.268a5.489,5.489,0,0,1,.21-3.421,1,1,0,0,0-.643-1.36L4.635,32l15.639-4.468a1,1,0,1,0-.549-1.924l-8.99,2.569a6.456,6.456,0,0,1,.112-9.09,6.109,6.109,0,0,1,3.05-1.7,7.817,7.817,0,0,1,3.871.27.965.965,0,0,0,1.361-.964,5.361,5.361,0,0,1,.8-2.992,5.5,5.5,0,0,1,3.636-2.554,5.427,5.427,0,0,1,4.24.91L26.312,17.27a6.434,6.434,0,0,0-6.787,2.494A1,1,0,0,0,21.174,20.9c1.893-2.754,5.327-1.514,5.469-1.461a1,1,0,0,0,1.318-.66L32,4.646,36.589,20.7a.976.976,0,0,0,1.338.651,5.475,5.475,0,0,1,2.857-.241,1,1,0,0,0,.432-1.953,7.092,7.092,0,0,0-2.981.031l-2.026-7.092a6.479,6.479,0,0,1,10.833,6.653,1,1,0,0,0,.781,1.333A5.482,5.482,0,0,1,52.07,27.5l-6.452-2.039a7.47,7.47,0,0,0-.428-2.807,1,1,0,1,0-1.875.7,5.656,5.656,0,0,1,.252,2.635,1,1,0,0,0,.682,1.14l15.416,4.87Z" />
    <path
        d="M28.5,24A3.5,3.5,0,1,0,32,27.5,3.5,3.5,0,0,0,28.5,24Zm0,5A1.5,1.5,0,1,1,30,27.5,1.5,1.5,0,0,1,28.5,29Z" />
    <path
        d="M37.5,31A3.5,3.5,0,1,0,41,34.5,3.5,3.5,0,0,0,37.5,31Zm0,5A1.5,1.5,0,1,1,39,34.5,1.5,1.5,0,0,1,37.5,36Z" />
    <circle cx="23.5" cy="34.5" r="1.5" />
    <circle cx="38.5" cy="26.5" r="1.5" />
    <circle cx="32" cy="21" r="1" />
    <circle cx="31" cy="40" r="1" />
</svg>