<!-- icon666.com - MILLIONS vector ICONS FREE -->
<svg version="1.1" id="Capa_1" xmlns="http://www.w3.org/2000/svg"
    xmlns:xlink="http://www.w3.org/1999/xlink" x="0px" y="0px" viewBox="0 0 512.002 512.002"
    style="enable-background:new 0 0 512.002 512.002;" xml:space="preserve"><g><g><path d="M482,414.766c0,13.877-11.29,25.167-25.167,25.167c-13.877,0-25.166-11.29-25.166-25.167h-30 c0,13.877-11.29,25.167-25.167,25.167c-13.877,0-25.167-11.29-25.167-25.167h-30c0,13.877-11.289,25.167-25.166,25.167 S271,428.643,271,414.766h-30c0,13.877-11.29,25.167-25.167,25.167s-25.167-11.29-25.167-25.167h-30 c0,13.877-11.29,25.167-25.167,25.167s-25.167-11.29-25.167-25.167h-30c0,13.877-11.29,25.167-25.167,25.167 S30,428.643,30,414.766H0c0,30.419,24.748,55.167,55.167,55.167c15.821,0,30.098-6.705,40.167-17.41 c10.069,10.706,24.345,17.41,40.167,17.41c15.822,0,30.098-6.705,40.167-17.41c10.069,10.706,24.346,17.41,40.167,17.41 s30.098-6.705,40.167-17.41c10.069,10.706,24.346,17.41,40.167,17.41s30.098-6.705,40.166-17.41 c10.069,10.705,24.346,17.41,40.167,17.41s30.098-6.705,40.167-17.41c10.069,10.705,24.345,17.41,40.166,17.41 c30.419,0,55.167-24.748,55.167-55.167H482z"/></g></g><g><g><path d="M271,253.589v-88.148h115.605V42.069H241v211.52c-66.548,7.363-118.724,63.108-120.453,131.177h270.906 C389.724,316.697,337.548,260.952,271,253.589z"/></g></g></svg>